<svg width="24" height="22" viewBox="0 0 24 22" fill="none" xmlns="http://www.w3.org/2000/svg">
<path d="M7.09091 0.0935059C3.18135 0.0935059 0 2.9478 0 6.45544V15.2643C0 18.7719 3.18135 21.6262 7.09091 21.6262H16.9091C20.8186 21.6262 24 18.7719 24 15.2643V6.45544C24 2.9478 20.8186 0.0935059 16.9091 0.0935059H7.09091ZM7.09091 1.07227H16.9091C20.229 1.07227 22.9091 3.47684 22.9091 6.45544V15.2643C22.9091 18.2429 20.229 20.6475 16.9091 20.6475H7.09091C3.77101 20.6475 1.09091 18.2429 1.09091 15.2643V6.45544C1.09091 3.47684 3.77101 1.07227 7.09091 1.07227ZM18.5455 4.00854C17.943 4.00854 17.4545 4.44675 17.4545 4.9873C17.4545 5.52786 17.943 5.96606 18.5455 5.96606C19.1479 5.96606 19.6364 5.52786 19.6364 4.9873C19.6364 4.44675 19.1479 4.00854 18.5455 4.00854ZM12 5.47668C8.69275 5.47668 6 7.89261 6 10.8599C6 13.8271 8.69275 16.243 12 16.243C15.3072 16.243 18 13.8271 18 10.8599C18 7.89261 15.3072 5.47668 12 5.47668ZM12 6.45544C14.7177 6.45544 16.9091 8.42157 16.9091 10.8599C16.9091 13.2982 14.7177 15.2643 12 15.2643C9.28232 15.2643 7.09091 13.2982 7.09091 10.8599C7.09091 8.42157 9.28232 6.45544 12 6.45544Z" fill="#6BFF3E"/>
</svg>
