<svg width="24" height="22" viewBox="0 0 24 22" fill="none" xmlns="http://www.w3.org/2000/svg">
<path d="M22.584 0.0950742C22.3182 0.106581 22.0594 0.179572 21.826 0.271764C21.5951 0.363337 20.2653 0.92326 18.3016 1.75152C16.3379 2.57978 13.7853 3.65835 11.2549 4.72786C6.19411 6.86687 1.22104 8.97151 1.22104 8.97151L1.25729 8.95784C1.25729 8.95784 0.957137 9.05681 0.652827 9.26599C0.500672 9.37058 0.336978 9.5056 0.202944 9.70245C0.068911 9.8993 -0.0290706 10.1783 0.0078547 10.4734C0.137554 11.5098 1.22637 11.8038 1.22637 11.8038L1.23063 11.8059L6.08978 13.4465C6.21367 13.8543 7.56358 18.2991 7.86052 19.2404C8.02452 19.7608 8.17801 20.061 8.33812 20.2658C8.41824 20.3683 8.50221 20.4476 8.59504 20.5056C8.63193 20.5287 8.67072 20.546 8.70911 20.5614C8.70993 20.5617 8.71042 20.561 8.71124 20.5614C8.71596 20.5634 8.7204 20.5636 8.7251 20.5656L8.71231 20.5624C8.72123 20.566 8.73003 20.572 8.73896 20.575C8.75628 20.581 8.7669 20.5808 8.78907 20.5856C9.34556 20.7772 9.8061 20.4215 9.8061 20.4215L9.82529 20.4068L12.8103 17.6755L17.6545 21.4017L17.7153 21.429C18.5632 21.8004 19.33 21.5932 19.7547 21.2523C20.1793 20.9114 20.3463 20.472 20.3463 20.472L20.3645 20.4257L23.9241 2.12278C24.0151 1.71331 24.0281 1.35936 23.9422 1.03952C23.8563 0.719684 23.6476 0.441653 23.3857 0.287552C23.1238 0.133446 22.8499 0.083567 22.584 0.0950742ZM22.6128 1.1899C22.7208 1.18497 22.8008 1.19714 22.826 1.21199C22.8512 1.22683 22.8626 1.22488 22.8868 1.31506C22.911 1.40524 22.9241 1.59518 22.858 1.89245L22.8559 1.89876L19.3165 20.0954C19.3081 20.1138 19.2344 20.2821 19.066 20.4173C18.8942 20.5552 18.7031 20.6628 18.1961 20.453L12.8988 16.3777L12.7495 16.262L12.7463 16.2651L11.1621 15.0925L20.0649 4.75942C20.2046 4.59764 20.2349 4.3699 20.142 4.17809C20.0492 3.98627 19.8507 3.86628 19.6353 3.87178C19.5322 3.87442 19.4321 3.90578 19.3464 3.96223L6.46398 12.4348L1.59737 10.791C1.59737 10.791 1.11411 10.5257 1.09098 10.3409C1.0897 10.3306 1.084 10.3399 1.10911 10.303C1.13422 10.2661 1.19734 10.2038 1.27648 10.1494C1.43476 10.0407 1.61549 9.97486 1.61549 9.97486L1.63361 9.96855L1.65173 9.96119C1.65173 9.96119 6.62507 7.85644 11.6856 5.71754C14.2158 4.64809 16.768 3.57031 18.7312 2.74225C20.6939 1.91441 22.1121 1.31853 22.2322 1.27091C22.3689 1.2169 22.5048 1.19484 22.6128 1.1899ZM16.7089 6.99114L9.95748 14.8274L9.95428 14.8306C9.94374 14.8431 9.93378 14.8561 9.92443 14.8695C9.91372 14.8841 9.90376 14.8992 9.89458 14.9147C9.85665 14.9782 9.83234 15.0487 9.82315 15.1219C9.82315 15.1233 9.82315 15.1247 9.82315 15.1261L8.94365 19.028C8.92902 18.9858 8.91878 18.9704 8.90314 18.9207V18.9196C8.62379 18.0341 7.35018 13.8422 7.17397 13.2625L16.7089 6.99114ZM10.7197 16.1116L11.9329 17.0097L10.1504 18.6399L10.7197 16.1116Z" fill="#6BFF3E"/>
</svg>
