<svg width="28" height="22" viewBox="0 0 28 22" fill="none" xmlns="http://www.w3.org/2000/svg">
<path d="M1.38018 0.093523C0.887489 0.093523 0.508559 0.251416 0.274886 0.570119C0.0412131 0.888822 0 1.28465 0 1.60742C0 2.22952 0.17947 3.80146 0.826086 6.07551C1.47271 8.34955 2.58969 11.2721 4.47297 14.3932C7.22201 18.9487 10.857 21.6245 14.1687 21.6245C14.6977 21.6245 15.201 21.4695 15.5877 21.0918C15.9745 20.7141 16.2124 20.1072 16.2124 19.3817V15.285V15.2833C16.2121 14.9742 16.2908 14.7963 16.4124 14.6648C16.534 14.5332 16.7182 14.4492 16.9478 14.4492C17.2281 14.4492 17.4898 14.5509 17.9365 14.9766C18.3831 15.4024 18.9815 16.149 19.8276 17.3439H19.8261C20.797 18.716 21.3648 19.7286 21.8626 20.4452C22.3604 21.1619 22.8696 21.6262 23.5536 21.6262H26.527C26.9238 21.6262 27.2781 21.5303 27.5545 21.2758C27.831 21.0213 27.9877 20.6037 27.9992 20.1596C28.0051 19.9303 27.9765 19.6992 27.9273 19.4535L27.923 19.4342L27.9186 19.415C27.659 18.4907 26.7685 16.5883 25.4821 14.7016C24.7858 13.6806 24.0884 12.6531 23.7968 12.1451L23.7954 12.1434L23.794 12.1399C23.6036 11.8181 23.5756 11.6763 23.5795 11.5686C23.5832 11.4632 23.6509 11.2776 23.8127 10.9431L23.8199 10.9273C23.8199 10.9273 23.8248 10.916 23.8271 10.9116L23.8415 10.8853C23.8651 10.8405 23.9043 10.7696 23.9537 10.6785C24.0526 10.4963 24.1969 10.2305 24.3725 9.9058C24.7236 9.25641 25.1987 8.36754 25.6879 7.40717C26.1771 6.4468 26.6806 5.41514 27.0882 4.47751C27.4924 3.54803 27.8002 2.73468 27.9143 2.08576C27.9744 1.84633 28.0049 1.61048 27.9992 1.38839V1.38664V1.38314C27.9868 1.03463 27.864 0.672086 27.6207 0.4352C27.3775 0.198315 27.0509 0.0952717 26.6637 0.0952717H23.6903C23.2416 0.0952717 22.8701 0.271843 22.6023 0.540325C22.3345 0.808807 22.1707 1.14939 22.0554 1.46197V1.45847C22.0554 1.45847 20.4141 5.80689 18.469 8.78789C18.3673 8.94368 17.6843 9.96361 16.5793 9.96361C16.5486 9.96361 16.4402 9.94568 16.3692 9.87775C16.2982 9.80981 16.2109 9.69572 16.2109 9.29076V1.94032C16.2109 1.42499 16.1718 0.992115 15.9706 0.631436C15.7694 0.270757 15.3993 0.0952615 15.0121 0.0952615H9.94761C9.28662 0.0952615 8.84232 0.772678 8.84232 1.44094C8.84232 1.81662 9.01283 2.12295 9.18197 2.32755C9.35111 2.53216 9.52997 2.688 9.69288 2.87774C10.0187 3.25723 10.3142 3.72026 10.3132 4.89276V9.87949C10.3132 10.4581 10.254 10.7676 10.2239 10.8362C10.2089 10.8705 10.2195 10.8494 10.2211 10.8485C10.2226 10.8476 10.1968 10.859 10.1318 10.859C10.0746 10.859 9.79605 10.7149 9.46837 10.3035C9.14068 9.89219 8.75513 9.26044 8.35876 8.45672C7.56604 6.84929 6.7219 4.55315 6.06471 1.88074L6.06327 1.87549L6.06184 1.86848C5.91072 1.31016 5.75348 0.874297 5.47466 0.55258C5.19584 0.230872 4.81056 0.0935059 4.37944 0.0935059L1.38018 0.093523ZM1.38018 0.990645H4.37942C4.70285 0.990645 4.84034 1.05697 4.96661 1.20266C5.09288 1.34834 5.22403 1.64495 5.36095 2.1506C6.03406 4.88408 6.89531 7.23294 7.72696 8.91931C8.14345 9.76384 8.5511 10.4425 8.93875 10.9291C9.3264 11.4157 9.68538 11.7561 10.1318 11.7561C10.2555 11.7561 10.3932 11.7414 10.5334 11.6615C10.6735 11.5816 10.7976 11.4303 10.873 11.2585C11.0238 10.9148 11.05 10.5102 11.05 9.87951V4.89278C11.0512 3.51028 10.6129 2.7076 10.2023 2.22944C9.9971 1.99037 9.80719 1.81934 9.70008 1.68977C9.59297 1.5602 9.57919 1.52461 9.57919 1.44097C9.57919 1.22826 9.68605 0.992404 9.94762 0.992404H15.0121C15.2593 0.992404 15.3053 1.03744 15.3604 1.13609C15.4154 1.23474 15.4741 1.49935 15.4741 1.94034V9.29078C15.4741 9.8951 15.6631 10.3417 15.9145 10.5821C16.1658 10.8226 16.4258 10.8607 16.5794 10.8607C18.0534 10.8607 18.9297 9.52124 19.0447 9.3451C21.0801 6.22567 22.7261 1.8317 22.7261 1.8317V1.82996H22.7275C22.8164 1.58902 22.9265 1.37818 23.0701 1.23421C23.2136 1.09029 23.389 0.992411 23.6903 0.992411H26.6637C26.9418 0.992411 27.0905 1.06817 27.1602 1.13609C27.2296 1.20367 27.2583 1.27218 27.2638 1.4217C27.2663 1.53614 27.2505 1.67924 27.2091 1.83872L27.2034 1.85975L27.2005 1.88078C27.1234 2.33085 26.8312 3.15059 26.4363 4.05875C26.0414 4.96692 25.5458 5.98415 25.0619 6.9341C24.578 7.88404 24.1057 8.76765 23.7566 9.41345C23.582 9.73635 23.4377 9.99849 23.3378 10.1827C23.2878 10.2747 23.2488 10.3477 23.2212 10.3999C23.2074 10.426 23.1971 10.4453 23.1866 10.4665C23.184 10.4719 23.181 10.4828 23.178 10.4893C23.1751 10.4957 23.1727 10.4989 23.1679 10.5103C23.1631 10.522 23.1435 10.5804 23.1435 10.5804C23.1435 10.5804 23.1413 10.5985 23.1406 10.6049C22.9973 10.9014 22.8569 11.1732 22.8441 11.5284C22.8304 11.9028 22.9619 12.2667 23.1967 12.6638V12.6655C23.5351 13.2543 24.2201 14.2555 24.9151 15.2745C26.144 17.0769 27.0262 19.0295 27.2149 19.6918C27.2497 19.873 27.2666 20.0226 27.2638 20.1316C27.2577 20.3702 27.2083 20.4702 27.1099 20.5609C27.0114 20.6515 26.8221 20.7291 26.527 20.7291H23.5536C23.111 20.7291 22.8783 20.5191 22.4253 19.867C21.9724 19.2149 21.3796 18.1649 20.3846 16.7586C19.5263 15.5466 18.9134 14.7682 18.3913 14.2705C17.8692 13.7729 17.4043 13.5521 16.9478 13.5521C16.5694 13.5521 16.202 13.6921 15.9231 13.9937C15.6443 14.2952 15.4751 14.759 15.4755 15.2851V19.3817C15.4755 19.8897 15.3433 20.1817 15.1272 20.3927C14.9112 20.6037 14.5771 20.7274 14.1688 20.7274C11.1877 20.7274 7.71363 18.2475 5.06738 13.8623C3.23173 10.8201 2.14733 7.97793 1.52268 5.78117C0.898032 3.5844 0.736888 1.97935 0.736888 1.60745C0.736888 1.38208 0.768765 1.24391 0.824678 1.16765C0.880591 1.0914 1.00779 0.990645 1.38018 0.990645Z" fill="#6BFF3E"/>
</svg>
